{
  "accessors": [
    {
      "bufferView": 2,
      "componentType": 5126,
      "count": 2160,
      "max": [
        73.15357208251953,
        73.15367126464844,
        4.968600749969482
      ],
      "min": [
        -73.1536636352539,
        -73.15357971191406,
        -10.672691345214844
      ],
      "type": "VEC3"
    },
    {
      "bufferView": 2,
      "byteOffset": 25920,
      "componentType": 5126,
      "count": 2160,
      "max": [
        0.9999760985374451,
        0.9999761581420898,
        0.9558733105659485
      ],
      "min": [
        -0.9999760985374451,
        -0.9999761581420898,
        -0.9558735489845276
      ],
      "type": "VEC3"
    },
    {
      "bufferView": 1,
      "componentType": 5126,
      "count": 2160,
      "max": [
        1.0,
        1.0
      ],
      "min": [
        0.0,
        0.0
      ],
      "type": "VEC2"
    },
    {
      "bufferView": 0,
      "componentType": 5125,
      "count": 2160,
      "type": "SCALAR"
    },
    {
      "bufferView": 2,
      "byteOffset": 51840,
      "componentType": 5126,
      "count": 3972,
      "max": [
        80.11213684082031,
        80.11210632324219,
        12.212955474853516
      ],
      "min": [
        -80.11213684082031,
        -80.11209869384766,
        -17.91704559326172
      ],
      "type": "VEC3"
    },
    {
      "bufferView": 2,
      "byteOffset": 99504,
      "componentType": 5126,
      "count": 3972,
      "max": [
        0.9999949336051941,
        1.0,
        1.0
      ],
      "min": [
        -0.9999949336051941,
        -0.9999949336051941,
        -1.0
      ],
      "type": "VEC3"
    },
    {
      "bufferView": 1,
      "byteOffset": 17280,
      "componentType": 5126,
      "count": 3972,
      "max": [
        1.0,
        1.0
      ],
      "min": [
        -0.0,
        -0.0
      ],
      "type": "VEC2"
    },
    {
      "bufferView": 0,
      "byteOffset": 8640,
      "componentType": 5125,
      "count": 14688,
      "type": "SCALAR"
    },
    {
      "bufferView": 2,
      "byteOffset": 147168,
      "componentType": 5126,
      "count": 1983,
      "max": [
        55.23389434814453,
        55.23398971557617,
        6.246800899505615
      ],
      "min": [
        -55.23400115966797,
        -55.23391342163086,
        -11.950889587402344
      ],
      "type": "VEC3"
    },
    {
      "bufferView": 2,
      "byteOffset": 170964,
      "componentType": 5126,
      "count": 1983,
      "max": [
        1.0,
        1.0,
        1.0
      ],
      "min": [
        -1.0,
        -1.0,
        -1.0
      ],
      "type": "VEC3"
    },
    {
      "bufferView": 1,
      "byteOffset": 49056,
      "componentType": 5126,
      "count": 1983,
      "max": [
        0.65625,
        0.6045998930931091
      ],
      "min": [
        0.3437499403953552,
        -8.940696716308594e-08
      ],
      "type": "VEC2"
    },
    {
      "bufferView": 0,
      "byteOffset": 67392,
      "componentType": 5125,
      "count": 3240,
      "type": "SCALAR"
    },
    {
      "bufferView": 3,
      "componentType": 5126,
      "count": 149,
      "max": [
        5.0
      ],
      "min": [
        0.0416666679084301
      ],
      "type": "SCALAR"
    },
    {
      "bufferView": 4,
      "componentType": 5126,
      "count": 149,
      "max": [
        8.35655177190307e-17,
        0.9999686479568481,
        8.35655177190307e-17,
        1.0
      ],
      "min": [
        -8.658949813262245e-17,
        -0.8570917248725891,
        -8.658949813262245e-17,
        -0.4969484806060791
      ],
      "type": "VEC4"
    }
  ],
  "animations": [
    {
      "channels": [
        {
          "sampler": 0,
          "target": {
            "node": 4,
            "path": "rotation"
          }
        }
      ],
      "name": "003_Ethirium_coin",
      "samplers": [
        {
          "input": 12,
          "interpolation": "LINEAR",
          "output": 13
        }
      ]
    }
  ],
  "asset": {
    "extras": {
      "author": "fahad4 (https://sketchfab.com/fahad4)",
      "license": "CC-BY-4.0 (http://creativecommons.org/licenses/by/4.0/)",
      "source": "https://sketchfab.com/3d-models/ethereum-coin-51f1d335994949b0886fdb11d62ab64d",
      "title": "Ethereum Coin"
    },
    "generator": "Sketchfab-11.8.0",
    "version": "2.0"
  },
  "bufferViews": [
    {
      "buffer": 0,
      "byteLength": 80352,
      "name": "floatBufferViews",
      "target": 34963
    },
    {
      "buffer": 0,
      "byteLength": 64920,
      "byteOffset": 80352,
      "byteStride": 8,
      "name": "floatBufferViews",
      "target": 34962
    },
    {
      "buffer": 0,
      "byteLength": 194760,
      "byteOffset": 145272,
      "byteStride": 12,
      "name": "floatBufferViews",
      "target": 34962
    },
    {
      "buffer": 0,
      "byteLength": 596,
      "byteOffset": 340032,
      "name": "floatBufferViews"
    },
    {
      "buffer": 0,
      "byteLength": 2384,
      "byteOffset": 340628,
      "byteStride": 16,
      "name": "floatBufferViews"
    }
  ],
  "buffers": [
    {
      "byteLength": 343012,
      "uri": "scene.bin"
    }
  ],
  "materials": [
    {
      "doubleSided": true,
      "name": "aiStandardSurface2",
      "pbrMetallicRoughness": {
        "metallicFactor": 0.0,
        "roughnessFactor": 0.6
      }
    },
    {
      "doubleSided": true,
      "name": "aiStandardSurface1",
      "pbrMetallicRoughness": {
        "metallicFactor": 0.0,
        "roughnessFactor": 0.6
      }
    },
    {
      "doubleSided": true,
      "name": "aiStandardSurface3",
      "pbrMetallicRoughness": {
        "metallicFactor": 0.0,
        "roughnessFactor": 0.6
      }
    }
  ],
  "meshes": [
    {
      "name": "Ethereum_aiStandardSurface2_0",
      "primitives": [
        {
          "attributes": {
            "NORMAL": 1,
            "POSITION": 0,
            "TEXCOORD_0": 2
          },
          "indices": 3,
          "material": 0,
          "mode": 4
        }
      ]
    },
    {
      "name": "Ethereum_aiStandardSurface1_0",
      "primitives": [
        {
          "attributes": {
            "NORMAL": 5,
            "POSITION": 4,
            "TEXCOORD_0": 6
          },
          "indices": 7,
          "material": 1,
          "mode": 4
        }
      ]
    },
    {
      "name": "Ethereum_aiStandardSurface3_0",
      "primitives": [
        {
          "attributes": {
            "NORMAL": 9,
            "POSITION": 8,
            "TEXCOORD_0": 10
          },
          "indices": 11,
          "material": 2,
          "mode": 4
        }
      ]
    }
  ],
  "nodes": [
    {
      "children": [
        1
      ],
      "matrix": [
        1.0,
        0.0,
        0.0,
        0.0,
        0.0,
        2.220446049250313e-16,
        -1.0,
        0.0,
        0.0,
        1.0,
        2.220446049250313e-16,
        0.0,
        0.0,
        0.0,
        0.0,
        1.0
      ],
      "name": "Sketchfab_model"
    },
    {
      "children": [
        2
      ],
      "matrix": [
        1.0,
        0.0,
        0.0,
        0.0,
        0.0,
        0.0,
        1.0,
        0.0,
        0.0,
        -1.0,
        0.0,
        0.0,
        0.0,
        0.0,
        0.0,
        1.0
      ],
      "name": "6a3ee0e5893f476588bb2b1cf4a8343b.fbx"
    },
    {
      "children": [
        3
      ],
      "name": "Object_2"
    },
    {
      "children": [
        4
      ],
      "name": "RootNode"
    },
    {
      "children": [
        5,
        6,
        7
      ],
      "name": "Ethereum",
      "rotation": [
        0.0,
        -0.5486918091773987,
        0.0,
        0.8360247015953064
      ],
      "scale": [
        1.0,
        1.0,
        0.7049671411514282
      ],
      "translation": [
        5.340576171875e-05,
        104.59162902832031,
        -21.735252380371094
      ]
    },
    {
      "mesh": 0,
      "name": "Ethereum_aiStandardSurface2_0"
    },
    {
      "mesh": 1,
      "name": "Ethereum_aiStandardSurface1_0"
    },
    {
      "mesh": 2,
      "name": "Ethereum_aiStandardSurface3_0"
    }
  ],
  "scene": 0,
  "scenes": [
    {
      "name": "Sketchfab_Scene",
      "nodes": [
        0
      ]
    }
  ]
}
